<?xml version="1.0" standalone="no"?>
<!DOCTYPE svg PUBLIC "-//W3C//DTD SVG 20010904//EN"
 "http://www.w3.org/TR/2001/REC-SVG-20010904/DTD/svg10.dtd">
<svg version="1.0" xmlns="http://www.w3.org/2000/svg"
 width="36.000000pt" height="46.000000pt" viewBox="0 0 36.000000 46.000000"
 preserveAspectRatio="xMidYMid meet">
<metadata>
Created by potrace 1.15, written by Peter Selinger 2001-2017
</metadata>
<g transform="translate(0.000000,46.000000) scale(0.100000,-0.100000)"
fill="#000000" stroke="none">
<path d="M130 445 c-49 -26 -91 -160 -57 -182 6 -4 23 -23 36 -42 13 -19 19
-31 12 -27 -18 12 -79 -13 -101 -41 -15 -20 -20 -41 -20 -89 l0 -64 80 0 80 0
2 33 c6 90 4 123 -8 137 -11 13 -7 15 26 15 34 0 37 -2 25 -15 -13 -15 -13
-138 0 -160 3 -6 40 -10 81 -10 l74 0 0 64 c0 48 -5 69 -20 89 -23 29 -83 53
-102 41 -7 -5 4 13 25 38 37 45 38 49 34 109 -4 56 -7 65 -38 90 -38 32 -87
37 -129 14z m126 -122 c8 -32 -27 -96 -59 -107 -32 -12 -62 11 -83 61 -22 52
-19 60 32 66 25 2 53 12 62 21 16 15 18 15 30 -1 7 -10 15 -28 18 -40z"/>
</g>
</svg>
