<?xml version="1.0" standalone="no"?>
<!DOCTYPE svg PUBLIC "-//W3C//DTD SVG 20010904//EN"
 "http://www.w3.org/TR/2001/REC-SVG-20010904/DTD/svg10.dtd">
<svg version="1.0" xmlns="http://www.w3.org/2000/svg"
 width="96.000000pt" height="114.000000pt" viewBox="0 0 96.000000 114.000000"
 preserveAspectRatio="xMidYMid meet">
<metadata>
Created by potrace 1.10, written by Peter Selinger 2001-2011
</metadata>
<g transform="translate(0.000000,114.000000) scale(0.100000,-0.100000)"
fill="#000000" stroke="none">
<path style="fill: white;" d="M392 1120 c-7 -11 -20 -20 -30 -20 -35 0 -129 -97 -164 -168 l-33
-67 0 -195 0 -196 -38 -44 c-21 -25 -47 -65 -59 -90 -11 -25 -25 -53 -30 -64
-13 -24 -29 -107 -35 -179 -4 -51 -2 -59 19 -77 22 -18 42 -19 449 -20 413 0
426 1 444 20 10 11 24 20 32 20 22 0 17 86 -7 110 -11 11 -20 33 -20 51 0 51
-55 168 -107 229 l-38 44 0 196 0 195 -33 67 c-36 72 -130 168 -165 168 -10 0
-21 9 -24 20 -5 18 -14 20 -77 20 -60 0 -73 -3 -84 -20z m218 -217 c13 -27 34
-65 47 -85 31 -50 29 -88 -7 -146 -86 -141 -212 -170 -309 -73 -59 59 -86 127
-82 206 2 43 198 143 282 144 45 1 46 0 69 -46z m-23 -452 c35 -55 43 -75 35
-87 -10 -13 -134 -74 -152 -74 -18 0 -142 61 -152 74 -8 12 0 32 35 87 l29 46
88 0 88 0 29 -46z"/>
</g>
</svg>
